<?xml version="1.0" standalone="no"?>
<!DOCTYPE svg PUBLIC "-//W3C//DTD SVG 20010904//EN"
 "http://www.w3.org/TR/2001/REC-SVG-20010904/DTD/svg10.dtd">
<svg version="1.0" xmlns="http://www.w3.org/2000/svg"
 width="250.000000pt" height="250.000000pt" viewBox="0 0 250.000000 250.000000"
 preserveAspectRatio="xMidYMid meet">
<metadata>
Created by potrace 1.14, written by Peter Selinger 2001-2017
</metadata>
<g transform="translate(0.000000,250.000000) scale(0.100000,-0.100000)"
fill="#000000" stroke="none">
<path d="M1265 2366 c-68 -15 -153 -58 -201 -101 -13 -11 -29 -25 -36 -31 -28
-24 -88 -94 -88 -103 0 -5 -4 -11 -8 -13 -8 -3 -51 -90 -73 -148 -16 -42 -18
-219 -2 -252 6 -13 19 -50 29 -83 9 -33 21 -67 25 -75 4 -8 15 -33 24 -55 9
-22 25 -57 36 -78 10 -22 19 -45 19 -52 0 -7 3 -15 8 -17 4 -1 17 -22 30 -46
l23 -43 -29 -57 c-16 -31 -39 -75 -52 -97 -12 -22 -41 -74 -63 -115 -22 -41
-47 -86 -56 -100 -9 -14 -25 -43 -36 -65 -11 -22 -22 -42 -25 -45 -3 -3 -17
-27 -31 -55 -15 -27 -44 -83 -66 -123 -37 -69 -47 -122 -22 -122 5 0 9 -4 9
-10 0 -15 53 -125 62 -128 4 -2 8 -8 8 -13 0 -4 12 -34 27 -66 27 -57 53 -94
53 -75 0 6 7 12 15 16 11 4 24 -13 46 -60 17 -36 33 -64 34 -62 5 5 48 82 74
133 14 28 29 52 32 55 4 3 11 18 14 33 4 15 10 27 14 27 3 0 12 15 20 33 8 17
17 34 20 37 3 3 21 34 39 70 32 65 84 162 136 255 55 97 46 98 120 -19 36 -58
66 -110 66 -116 0 -5 5 -10 10 -10 6 0 10 -4 10 -10 0 -5 32 -59 70 -120 39
-61 70 -113 70 -115 0 -3 21 -38 48 -79 38 -61 50 -73 63 -65 14 7 23 -2 50
-46 35 -59 46 -65 56 -37 4 9 9 19 13 22 3 3 22 37 41 75 20 39 48 92 62 119
27 50 35 96 17 96 -5 0 -10 6 -10 13 0 7 -15 35 -34 62 -18 28 -36 60 -40 73
-4 12 -12 22 -17 22 -5 0 -9 7 -9 15 0 8 -4 15 -9 15 -5 0 -11 8 -14 18 -6 17
-48 93 -57 102 -10 10 -30 45 -47 83 -10 20 -21 37 -25 37 -5 0 -8 5 -8 10 0
6 -22 46 -50 90 -27 44 -50 84 -50 90 0 5 -4 10 -10 10 -5 0 -10 5 -10 10 0 6
-12 28 -26 49 l-25 39 53 104 c29 56 56 105 61 106 4 2 7 11 7 21 0 9 4 21 8
26 5 6 15 26 22 45 12 32 27 70 50 125 5 11 16 47 25 80 9 33 21 74 26 92 6
18 10 81 11 140 1 158 -24 207 -190 368 -90 89 -209 121 -337 91z m166 -283
c4 -59 -18 -163 -33 -163 -4 0 -8 -6 -8 -13 0 -16 -94 -200 -123 -241 l-21
-29 -28 34 c-16 19 -31 44 -34 57 -4 12 -10 22 -15 22 -17 0 -9 91 12 132 24
48 156 182 188 193 11 3 21 11 21 16 0 17 40 9 41 -8z"/>
</g>
</svg>
